#!OML:ASF H:\Terrain\Patient Classification 1\Walking\steve\steve.ASF
:FULLY-SPECIFIED
:DEGREES
62
root 7.6449 15.5768 -17.3899 6.20579 -9.06246 0.513328
lowerback 1.17032 4.54638 -2.23837
upperback -3.39405 5.93856 -1.73733
thorax -4.19734 2.99871 -0.833823
lowerneck -12.8064 -2.53248 -2.30868
upperneck 13.9288 -4.15917 7.11067
head 6.55188 -1.544 2.2669
rclavicle -5.38489e-014 3.57812e-015
rhumerus -35.6799 3.45662 -88.0064
rradius 69.3658
rwrist -5.57803
rhand 178.245 -70.7999
rfingers 7.12502
rthumb -156.091 -42.2683
lclavicle -5.38489e-014 3.57812e-015
lhumerus -60.6685 22.8048 55.1131
lradius 5.54151
lwrist -23.9502
lhand -19.2052 -8.88263
lfingers 7.12502
lthumb 7.10705 20.978
rfemur -1.27179 6.67862 19.8131
rtibia 55.4014
rfoot 27.4412 -8.80238
rtoes 8.40312
lfemur -36.5475 1.15768 -22.231
ltibia 37.1316
lfoot -7.28184 0.0916121
ltoes -0.545604
63
root 7.65891 15.6133 -17.148 5.99028 -9.23253 0.87373
lowerback 1.24547 4.4596 -2.52846
upperback -3.29089 5.81107 -1.76144
thorax -4.15882 2.94312 -0.694373
lowerneck -11.6667 -2.19441 -2.89631
upperneck 12.858 -3.6339 7.79196
head 6.01215 -1.31275 2.63347
rclavicle -4.98204e-015 -7.15625e-015
rhumerus -36.201 2.76894 -88.0863
rradius 67.5649
rwrist -5.50707
rhand 178.976 -71.5282
rfingers 7.12502
rthumb -155.391 -43.0901
lclavicle -4.98204e-015 -7.15625e-015
lhumerus -60.1907 23.7481 54.967
lradius 5.83488
lwrist -24.2471
lhand -19.2595 -9.43277
lfingers 7.12502
lthumb 7.05468 20.4297
rfemur -3.14474 6.52236 19.3591
rtibia 58.7025
rfoot 26.6754 -9.42109
rtoes 5.13302
lfemur -35.3117 1.19058 -22.8496
ltibia 37.0191
lfoot -8.16219 0.0912692
ltoes -1.54938
64
root 7.67038 15.6395 -16.9156 5.91732 -9.63666 1.2518
lowerback 1.26682 4.37778 -2.9012
upperback -3.24892 5.68473 -1.86874
thorax -4.15256 2.88948 -0.593514
lowerneck -12.8308 -2.16505 -2.33006
upperneck 14.0003 -3.66784 7.17135
head 6.55538 -1.30148 2.33799
rclavicle -4.03098e-014 1.63003e-014
rhumerus -36.4909 2.22761 -88.5716
rradius 65.6388
rwrist -5.51273
rhand 179.152 -71.9743
rfingers 7.12502
rthumb -155.222 -43.5593
lclavicle -4.03098e-014 1.63003e-014
lhumerus -59.6312 24.8696 54.6325
lradius 6.17039
lwrist -24.7596
lhand -19.0348 -9.49186
lfingers 7.12502
lthumb 7.27156 20.3632
rfemur -5.32507 6.52694 18.8435
rtibia 61.8177
rfoot 24.7621 -8.84112
rtoes 1.65109
lfemur -34.1745 1.47778 -23.5084
ltibia 36.8222
lfoot -9.052 -0.00950988
ltoes -2.33436
65
root 7.67994 15.6651 -16.6891 5.82917 -9.85377 1.88044
lowerback 1.36389 4.30153 -3.44438
upperback -3.28294 5.55023 -2.07545
thorax -4.27441 2.83636 -0.511736
lowerneck -13.2378 -2.115 -2.27463
upperneck 14.5884 -3.64559 7.16368
head 6.81232 -1.26806 2.33019
rclavicle -1.90678e-014 -9.14409e-015
rhumerus -37.0458 1.58726 -89.0155
rradius 63.7963
rwrist -5.60824
rhand 178.64 -70.9963
rfingers 7.12502
rthumb -155.713 -42.5147
lclavicle -1.90678e-014 -9.14409e-015
lhumerus -58.9 25.8029 54.4307
lradius 6.48307
lwrist -25.4369
lhand -18.9494 -8.96021
lfingers 7.12502
lthumb 7.354 20.892
rfemur -7.56755 6.41152 18.096
rtibia 64.7068
rfoot 21.9666 -8.03434
rtoes 0.545466
lfemur -32.9883 1.58822 -24.4182
ltibia 36.4512
lfoot -9.82174 -0.133397
ltoes -2.37832
66
root 7.68785 15.699 -16.4622 5.6094 -10.04 2.4914
lowerback 1.50257 4.25235 -4.01138
upperback -3.26959 5.45341 -2.14889
thorax -4.38584 2.80513 -0.283329
lowerneck -12.8017 -2.01166 -2.60089
upperneck 14.4208 -3.45445 7.30306
head 6.68005 -1.19491 2.44919
rclavicle -3.6918e-014 -3.97569e-015
rhumerus -37.6922 0.930464 -89.0925
rradius 61.9285
rwrist -5.76302
rhand 177.947 -70.2766
rfingers 7.12502
rthumb -156.377 -41.7078
lclavicle -3.6918e-014 -3.97569e-015
lhumerus -58.0381 26.8585 54.5234
lradius 6.58234
lwrist -26.1327
lhand -19.0167 -8.60319
lfingers 7.12502
lthumb 7.28905 21.2513
rfemur -9.65472 6.31571 17.3984
rtibia 67.2712
rfoot 19.1272 -7.31644
rtoes 1.34005
lfemur -31.5875 1.57808 -25.256
ltibia 35.9229
lfoot -10.4251 -0.162959
ltoes -2.19374
67
root 7.69765 15.7419 -16.2311 5.39086 -10.1289 2.90118
lowerback 1.59287 4.08219 -4.4215
upperback -3.205 5.2074 -2.13725
thorax -4.40235 2.69532 -0.0361598
lowerneck -12.415 -1.80954 -2.57309
upperneck 14.2073 -3.14228 7.11837
head 6.52391 -1.0704 2.41476
rclavicle -4.55496e-014 1.78906e-014
rhumerus -38.0097 0.352371 -89.2175
rradius 59.6751
rwrist -5.58078
rhand 176.797 -72.4798
rfingers 7.12502
rthumb -157.481 -43.773
lclavicle -4.55496e-014 1.78906e-014
lhumerus -57.3776 28.0827 54.3898
lradius 6.95734
lwrist -26.9999
lhand -18.9932 -8.90284
lfingers 7.12502
lthumb 7.31175 20.9508
rfemur -11.617 6.07862 16.943
rtibia 69.3819
rfoot 16.6867 -6.22135
rtoes 1.11869
lfemur -30.0606 1.35266 -25.8456
ltibia 35.2706
lfoot -11.1319 -0.117471
ltoes -1.57057
68
root 7.70858 15.7854 -16.0037 5.24614 -9.96641 2.98488
lowerback 1.76467 3.85827 -4.43115
upperback -3.17957 4.89986 -2.09223
thorax -4.46662 2.54374 0.0232245
lowerneck -12.2275 -1.64654 -2.43777
upperneck 14.1959 -2.91392 6.92226
head 6.4707 -0.973025 2.35105
rclavicle 4.23924e-014 -1.15295e-014
rhumerus -38.4931 -0.310372 -89.4133
rradius 57.5959
rwrist -5.38627
rhand 176.041 -73.0597
rfingers 7.12502
rthumb -158.207 -44.2668
lclavicle 4.23924e-014 -1.15295e-014
lhumerus -56.687 29.1436 54.1954
lradius 7.52035
lwrist -28.071
lhand -18.8846 -9.57471
lfingers 7.12502
lthumb 7.41655 20.2753
rfemur -13.56 5.57752 16.9468
rtibia 71.0414
rfoot 14.4452 -4.65606
rtoes -1.75568
lfemur -28.5764 1.05845 -26.1031
ltibia 34.5653
lfoot -11.8085 -0.250033
ltoes -1.46625
69
root 7.72318 15.8271 -15.78 5.16394 -9.67557 3.07052
lowerback 1.90526 3.68617 -4.31841
upperback -3.1987 4.66803 -2.0274
thorax -4.55329 2.42714 0.0321072
lowerneck -11.9611 -1.55172 -2.69187
upperneck 14.2581 -2.744 6.93222
head 6.43832 -0.908113 2.41336
rclavicle 1.1135e-015 1.07344e-014
rhumerus -39.5565 -0.720128 -89.4491
rradius 55.092
rwrist -8.51286
rhand 172.867 -70.9066
rfingers 7.12502
rthumb -161.257 -41.7896
lclavicle 1.1135e-015 1.07344e-014
lhumerus -55.7014 30.1336 54.3783
lradius 7.88972
lwrist -29.2195
lhand -18.6062 -9.91778
lfingers 7.12502
lthumb 7.68528 19.9226
rfemur -15.5319 4.95446 16.9905
rtibia 72.3654
rfoot 12.072 -3.22527
rtoes -6.47916
lfemur -27.2364 1.13973 -26.4512
ltibia 33.8843
lfoot -12.205 -0.801126
ltoes -1.85191
70
root 7.73758 15.869 -15.5505 5.22184 -9.33171 3.084
lowerback 1.79414 3.52166 -4.06979
upperback -3.25477 4.46516 -1.97952
thorax -4.52446 2.31971 -0.0363814
lowerneck -11.7016 -1.44515 -2.87408
upperneck 14.4801 -2.58154 6.94072
head 6.45708 -0.840311 2.46371
rclavicle -1.06303e-015 -1.35174e-014
rhumerus -40.7992 -1.31371 -89.2058
rradius 54.1608
rwrist -7.89467
rhand 175.637 -68.2272
rfingers 7.12502
rthumb -158.595 -39.3896
lclavicle -1.06303e-015 -1.35174e-014
lhumerus -54.582 31.0185 54.622
lradius 8.12384
lwrist -30.1826
lhand -18.6462 -10.8866
lfingers 7.12502
lthumb 7.64664 18.9551
rfemur -17.5341 4.41736 17.1363
rtibia 73.3939
rfoot 9.64879 -2.12978
rtoes -11.4034
lfemur -25.9963 1.1298 -26.6932
ltibia 33.2174
lfoot -12.5715 -1.31497
ltoes -2.2018
71
root 7.7441 15.9025 -15.3205 5.26155 -9.05837 2.79398
lowerback 1.65041 3.31205 -3.61219
upperback -3.21116 4.21586 -1.89888
thorax -4.35921 2.1808 -0.177442
lowerneck -11.6942 -1.29048 -2.56228
upperneck 14.745 -2.39679 6.66292
head 6.52361 -0.752528 2.34155
rclavicle -1.66661e-014 1.11319e-014
rhumerus -41.4159 -2.40457 -88.9458
rradius 52.262
rwrist -6.5094
rhand 177.069 -68.2788
rfingers 7.12502
rthumb -157.22 -39.6039
lclavicle -1.66661e-014 1.11319e-014
lhumerus -53.4207 32.0696 54.6701
lradius 8.38212
lwrist -31.2724
lhand -19.8973 -13.937
lfingers 7.12502
lthumb 6.43895 15.9452
rfemur -19.423 4.08883 17.681
rtibia 74.2043
rfoot 7.45871 -1.22126
rtoes -13.7698
lfemur -24.6867 0.70046 -26.4762
ltibia 32.5161
lfoot -13.0761 -1.44097
ltoes -2.5183
72
root 7.74958 15.9308 -15.0934 5.08715 -8.89753 2.90327
lowerback 1.61354 3.12058 -3.64207
upperback -3.03088 3.96839 -1.85043
thorax -4.14906 2.05612 -0.0860956
lowerneck -11.8429 -1.18141 -2.34357
upperneck 14.8725 -2.23386 6.30436
head 6.57571 -0.686732 2.20544
rclavicle 1.68936e-014 -9.34288e-015
rhumerus -41.5571 -3.84059 -88.4313
rradius 49.5861
rwrist -4.96736
rhand 177.847 -68.447
rfingers 7.12502
rthumb -156.473 -39.8659
lclavicle 1.68936e-014 -9.34288e-015
lhumerus -52.1578 33.3283 54.8785
lradius 8.84737
lwrist -32.8435
lhand -21.2155 -16.2244
lfingers 7.12502
lthumb 5.16631 13.6926
rfemur -21.0861 3.72558 17.7783
rtibia 74.8922
rfoot 5.74557 -0.185058
rtoes -13.9683
lfemur -23.2411 0.399412 -26.7078
ltibia 31.7836
lfoot -13.4971 -1.57084
ltoes -2.13254
